<?xml version="1.0" encoding="UTF-8" standalone="no"?>
<!DOCTYPE svg PUBLIC "-//W3C//DTD SVG 1.1//EN" "http://www.w3.org/Graphics/SVG/1.1/DTD/svg11.dtd">
<svg width="100%" height="100%" viewBox="0 0 139 57" version="1.1" xmlns="http://www.w3.org/2000/svg" xmlns:xlink="http://www.w3.org/1999/xlink" xml:space="preserve" style="fill-rule:evenodd;clip-rule:evenodd;stroke-linejoin:round;stroke-miterlimit:1.41421;">
    <g transform="matrix(1,0,0,1,-75,-72.4729)">
        <g transform="matrix(1,0,0,1,-224.036,22.0161)">
            <path d="M315.071,106.511C312.048,106.511 309.321,105.766 306.889,104.277C304.458,102.787 302.541,100.63 301.139,97.804C299.737,94.978 299.036,91.638 299.036,87.782C299.036,81.123 300.46,74.957 303.308,69.284C306.155,63.611 310.361,59.054 315.925,55.615C321.489,52.176 328.17,50.457 335.968,50.457C337.983,50.457 340.141,50.61 342.441,50.917C344.741,51.223 346.832,51.683 348.716,52.297C349.943,52.647 350.556,53.523 350.556,54.925C350.556,56.064 350.129,57.138 349.275,58.145C348.421,59.153 347.424,59.657 346.285,59.657C345.934,59.657 345.671,59.635 345.496,59.591C343.218,59.065 341.269,58.682 339.648,58.441C338.027,58.2 336.318,58.08 334.522,58.08C328.958,58.08 324.227,59.427 320.328,62.121C316.429,64.815 313.515,68.375 311.588,72.8C309.66,77.224 308.696,82 308.696,87.125C308.696,90.849 309.43,93.73 310.898,95.767C312.365,97.804 314.282,98.822 316.648,98.822C319.32,98.822 321.664,97.727 323.679,95.537C325.694,93.346 327.534,89.798 329.199,84.891C330.864,79.984 332.507,73.325 334.128,64.914C334.391,63.687 334.916,62.855 335.705,62.417C336.493,61.979 337.545,61.76 338.859,61.76C341.97,61.76 343.525,62.767 343.525,64.782C343.525,65.133 343.459,65.571 343.328,66.097C342.189,70.346 341.148,75.045 340.206,80.192C339.264,85.34 338.793,89.25 338.793,91.922C338.793,94.288 339.144,96.008 339.845,97.081C340.546,98.154 341.619,98.691 343.065,98.691C344.467,98.691 345.803,98.22 347.073,97.278C348.344,96.336 349.943,94.726 351.871,92.448C352.396,91.835 352.988,91.528 353.645,91.528C354.214,91.528 354.663,91.791 354.992,92.317C355.321,92.842 355.485,93.565 355.485,94.485C355.485,96.194 355.069,97.552 354.236,98.56C352.09,101.144 349.987,103.116 347.928,104.474C345.869,105.832 343.35,106.511 340.371,106.511C337.304,106.511 334.829,105.624 332.945,103.85C331.061,102.075 329.878,99.567 329.396,96.325C326.154,103.116 321.379,106.511 315.071,106.511Z" style="fill:white;fill-rule:nonzero;"/>
            <path d="M379.931,106.511C376.908,106.511 374.181,105.766 371.749,104.277C369.318,102.787 367.401,100.63 365.999,97.804C364.597,94.978 363.896,91.638 363.896,87.782C363.896,81.123 365.32,74.957 368.168,69.284C371.015,63.611 375.221,59.054 380.785,55.615C386.349,52.176 393.03,50.457 400.828,50.457C402.843,50.457 405.001,50.61 407.301,50.917C409.601,51.223 411.692,51.683 413.576,52.297C414.803,52.647 415.416,53.523 415.416,54.925C415.416,56.064 414.989,57.138 414.135,58.145C413.281,59.153 412.284,59.657 411.145,59.657C410.794,59.657 410.531,59.635 410.356,59.591C408.078,59.065 406.129,58.682 404.508,58.441C402.887,58.2 401.178,58.08 399.382,58.08C393.818,58.08 389.087,59.427 385.188,62.121C381.289,64.815 378.375,68.375 376.448,72.8C374.52,77.224 373.556,82 373.556,87.125C373.556,90.849 374.29,93.73 375.758,95.767C377.225,97.804 379.142,98.822 381.508,98.822C384.18,98.822 386.524,97.727 388.539,95.537C390.554,93.346 392.394,89.798 394.059,84.891C395.724,79.984 397.367,73.325 398.988,64.914C399.251,63.687 399.776,62.855 400.565,62.417C401.353,61.979 402.405,61.76 403.719,61.76C406.83,61.76 408.385,62.767 408.385,64.782C408.385,65.133 408.319,65.571 408.188,66.097C407.049,70.346 406.008,75.045 405.066,80.192C404.124,85.34 403.653,89.25 403.653,91.922C403.653,94.288 404.004,96.008 404.705,97.081C405.406,98.154 406.479,98.691 407.925,98.691C409.327,98.691 410.663,98.22 411.933,97.278C413.204,96.336 414.803,94.726 416.731,92.448C417.256,91.835 417.848,91.528 418.505,91.528C419.074,91.528 419.523,91.791 419.852,92.317C420.181,92.842 420.345,93.565 420.345,94.485C420.345,96.194 419.929,97.552 419.096,98.56C416.95,101.144 414.847,103.116 412.788,104.474C410.729,105.832 408.21,106.511 405.231,106.511C402.164,106.511 399.689,105.624 397.805,103.85C395.921,102.075 394.738,99.567 394.256,96.325C391.014,103.116 386.239,106.511 379.931,106.511Z" style="fill:white;fill-rule:nonzero;"/>
            <path d="M432.096,106.482C430.336,106.482 429.006,106.002 428.106,105.042C427.206,104.082 426.756,102.822 426.756,101.262C426.756,99.462 427.266,98.022 428.286,96.942C429.306,95.862 430.736,95.322 432.576,95.322C434.336,95.322 435.666,95.752 436.566,96.612C437.466,97.472 437.916,98.742 437.916,100.422C437.916,102.262 437.396,103.732 436.356,104.832C435.316,105.932 433.896,106.482 432.096,106.482Z" style="fill:white;fill-rule:nonzero;"/>
        </g>
    </g>
</svg>
